<svg viewBox="0 0 18 18" class="" role="presentation" focusable="false" xmlns:svg="http://www.w3.org/2000/svg" xmlns:xlink="http://www.w3.org/1999/xlink" id="FxSymbol0-050" data-type="1"><g><title></title><title>Assigned_Blueprint</title><path d="M17.49 4.5a2.29 2.29 0 0 0-2.29-2.27H.5v9a2.29 2.29 0 0 0 2.3 2.27H14l3.5 2z" fill="url(#e96fcfcb-6372-4eec-b426-08ec39644765)"></path><path d="M14 16.41V13.5h1.5a2 2 0 0 1 0 4 1.4 1.4 0 0 1-1.5-1.09zM4.14 2.19A1.72 1.72 0 0 0 2.32.67 1.7 1.7 0 0 0 .5 2.23v9a1.76 1.76 0 0 1 2-1.44h.06a1.86 1.86 0 0 1 1.15.65.22.22 0 0 0 .32 0 .23.23 0 0 0 .08-.17z" fill="#198ab3"></path><path d="M15 7.77L12.09 4.9a.15.15 0 0 0-.21 0 .18.18 0 0 0 0 .09v1.68H6v2.45h5.84v1.61a.15.15 0 0 0 .16.13.12.12 0 0 0 .09 0L15 8a.14.14 0 0 0 0-.23z" fill="#773adc"></path></g></svg>