<svg viewBox="0 0 58 56" xmlns="http://www.w3.org/2000/svg">
    <path d="M51.233 54.7263C50.653 54.7263 51.2439 54.8458 50.7497 54.7263V48.6785H7.24967C7.00317 48.6785 1.20801 48.6224 1.20801 43.7983V5.97698C1.20801 2.70726 4.02705 1.21881 6.64551 1.21881C9.26397 1.21881 12.083 2.70848 12.083 5.97698V7.19702H46.0372C52.5706 7.19702 56.7913 9.18814 56.7913 15.8593V51.1186C56.7913 53.8564 54.3493 54.7263 51.233 54.7263Z" fill="#59B4D9"/>
    <path opacity="0.7" d="M51.233 54.7263C50.653 54.7263 51.2439 54.8458 50.7497 54.7263V48.6785H7.24967C7.00317 48.6785 1.20801 48.6224 1.20801 43.7983V5.97698C1.20801 2.70726 4.02705 1.21881 6.64551 1.21881C9.26397 1.21881 12.083 2.70848 12.083 5.97698V7.19702H46.0372C52.5706 7.19702 56.7913 9.18814 56.7913 15.8593V51.1186C56.7913 53.8564 54.3493 54.7263 51.233 54.7263Z" fill="white"/>
    <path d="M46.0375 5.97821H13.2917C13.2917 2.31808 10.2708 0 6.64583 0C3.02083 0 0 2.31808 0 5.97821C0 5.97821 0 37.6993 0 42.5795C0 48.6797 3.625 49.8998 7.25 49.8998H49.5417V56C49.5417 56 58 56 58 49.8998V15.8606C58 8.54031 54.375 5.97821 46.0375 5.97821ZM55.5833 50.1438C55.5833 50.1438 53.1667 47.4597 48.4542 47.4597H7.25C4.83333 47.4597 2.41667 46.8497 2.41667 43.1895C2.41667 41.1155 3.9875 38.9194 7.25 38.9194C10.875 38.9194 13.1708 42.5795 13.1708 42.5795H13.2917V8.4183H47.2458C52.0792 8.4183 55.5833 9.76035 55.5833 14.6405V50.1438Z" fill="#0072C6"/>
    <path d="M42.291 36.4195L44.1035 41.2997L45.916 36.4195H42.291Z" fill="#0072C6"/>
    <path d="M45.916 19.3401H42.291V33.9806H45.916V19.3401Z" fill="#0072C6"/>
    <path d="M44.1035 13.3619C45.104 13.3619 45.916 14.1513 45.916 15.1261L45.8834 16.9L42.291 16.8683V15.1249C42.291 14.1513 43.103 13.3619 44.1035 13.3619Z" fill="#0072C6"/>
    <path d="M27.7913 12.1419C28.4583 12.1419 28.9997 12.9312 28.9997 13.9061L28.9779 15.68L26.583 15.6483V13.9048C26.583 12.9312 27.1243 12.1419 27.7913 12.1419Z" fill="#0072C6"/>
    <path d="M27.7916 14.582C25.1889 14.582 23.0791 16.7122 23.0791 19.3401C23.0791 21.9681 25.1889 24.0983 27.7916 24.0983C30.3944 24.0983 32.5041 21.9681 32.5041 19.3401C32.5041 16.7122 30.3944 14.582 27.7916 14.582ZM27.7916 22.8783C25.8595 22.8783 24.2874 21.291 24.2874 19.3401C24.2874 17.3893 25.8595 15.802 27.7916 15.802C29.7237 15.802 31.2958 17.3893 31.2958 19.3401C31.2958 21.291 29.7237 22.8783 27.7916 22.8783Z" fill="#0072C6"/>
    <path d="M27.7921 22.8953V20.5602L25.5361 22.1548L20.6823 37.2394L20.3379 42.2562L22.9793 37.9934H22.9805L27.8344 22.9088L27.7921 22.8953Z" fill="#0072C6"/>
    <path d="M34.9011 37.2394L30.0473 22.1548L27.7913 20.5602V22.8953L27.749 22.9088L32.6029 37.9934H32.6041L35.2455 42.2562L34.9011 37.2394Z" fill="#0072C6"/>
    <path d="M37.458 31.5406H18.1247C17.7912 31.5406 17.5205 31.2673 17.5205 30.9305C17.5205 30.5938 17.7912 30.3205 18.1247 30.3205H37.458C37.7915 30.3205 38.0622 30.5938 38.0622 30.9305C38.0622 31.2673 37.7915 31.5406 37.458 31.5406Z" fill="#0072C6"/>
</svg>
